arm26_ForwardRun_states
version=1
nRows=27
nColumns=17
inDegrees=yes

# SIMM Motion File Header:
name arm26_ForwardRun_states
datacolumns 17
datarows 27
otherdata 1
range 0.05572068 0.08604359
endheader
time	r_shoulder/r_shoulder_elev/r_shoulder_elev	r_shoulder/r_shoulder_elev/r_shoulder_elev_u	r_elbow/r_elbow_flex/r_elbow_flex	r_elbow/r_elbow_flex/r_elbow_flex_u	TRIlong/activation	TRIlong/fiber_length	TRIlat/activation	TRIlat/fiber_length	TRImed/activation	TRImed/fiber_length	BIClong/activation	BIClong/fiber_length	BICshort/activation	BICshort/fiber_length	BRA/activation	BRA/fiber_length
      0.05572068	    -85.81068401	      2.52158677	     -2.46699331	     -1.44471639	      0.03144158	      0.10813932	      0.03144158	      0.08226008	      0.03144158	      0.08226008	      0.03144158	      0.16020534	      0.03144158	      0.18762341	      0.03144158	      0.08666998
      0.05725987	    -85.58533121	      2.58913601	     -2.59625006	     -1.48682330	      0.03108362	      0.10804013	      0.03108362	      0.08178111	      0.03108362	      0.08178111	      0.03108362	      0.16021357	      0.03108362	      0.18753389	      0.03108362	      0.08666548
      0.05879907	    -85.35400834	      2.65694388	     -2.72926674	     -1.52994917	      0.03073198	      0.10793848	      0.03073198	      0.08130260	      0.03073198	      0.08130260	      0.03073198	      0.16022166	      0.03073198	      0.18743049	      0.03073198	      0.08666065
      0.06002777	    -85.16504604	      2.71136636	     -2.83821304	     -1.56525815	      0.03045572	      0.10785560	      0.03045572	      0.08092095	      0.03045572	      0.08092095	      0.03045572	      0.16022800	      0.03045572	      0.18735728	      0.03045572	      0.08665655
      0.06125648	    -84.97224589	      2.76596818	     -2.94966996	     -1.60126876	      0.03018335	      0.10777121	      0.03018335	      0.08053959	      0.03018335	      0.08053959	      0.03018335	      0.16023423	      0.03018335	      0.18727421	      0.03018335	      0.08665222
      0.06293075	    -84.70332698	      2.84077517	     -3.10568025	     -1.65163844	      0.02981835	      0.10765383	      0.02981835	      0.08002039	      0.02981835	      0.08002039	      0.02981835	      0.16024252	      0.02981835	      0.18716421	      0.02981835	      0.08664595
      0.06416751	    -84.50006114	      2.89628685	     -3.22406346	     -1.68976775	      0.02955321	      0.10756539	      0.02955321	      0.07963720	      0.02955321	      0.07963720	      0.02955321	      0.16024849	      0.02955321	      0.18707308	      0.02955321	      0.08664103
      0.06540427	    -84.29285185	      2.95209708	     -3.34517964	     -1.72880421	      0.02929180	      0.10747550	      0.02929180	      0.07925428	      0.02929180	      0.07925428	      0.02929180	      0.16025432	      0.02929180	      0.18698920	      0.02929180	      0.08663585
      0.06664102	    -84.08167914	      3.00813616	     -3.46909201	     -1.76866976	      0.02903407	      0.10738420	      0.02903407	      0.07887164	      0.02903407	      0.07887164	      0.02903407	      0.16025999	      0.02903407	      0.18689600	      0.02903407	      0.08663041
      0.06787778	    -83.86652534	      3.06447849	     -3.59586167	     -1.80947586	      0.02877996	      0.10729151	      0.02877996	      0.07848927	      0.02877996	      0.07848927	      0.02877996	      0.16026549	      0.02877996	      0.18680740	      0.02877996	      0.08662469
      0.06911454	    -83.64736963	      3.12106983	     -3.72555484	     -1.85116130	      0.02852942	      0.10719746	      0.02852942	      0.07810717	      0.02852942	      0.07810717	      0.02852942	      0.16027083	      0.02852942	      0.18670987	      0.02852942	      0.08661868
      0.07035130	    -83.42419314	      3.17798765	     -3.85823586	     -1.89384365	      0.02828239	      0.10710209	      0.02828239	      0.07772532	      0.02828239	      0.07772532	      0.02828239	      0.16027597	      0.02828239	      0.18661845	      0.02828239	      0.08661238
      0.07158805	    -83.19697345	      3.23515284	     -3.99397480	     -1.93742384	      0.02803882	      0.10700543	      0.02803882	      0.07734374	      0.02803882	      0.07734374	      0.02803882	      0.16028092	      0.02803882	      0.18651355	      0.02803882	      0.08660577
      0.07264936	    -82.99875000	      3.28450555	     -4.11294559	     -1.97568594	      0.02783251	      0.10692148	      0.02783251	      0.07701649	      0.02783251	      0.07701649	      0.02783251	      0.16028499	      0.02783251	      0.18643460	      0.02783251	      0.08659985
      0.07371067	    -82.79751956	      3.33403819	     -4.23426406	     -2.01461879	      0.02762869	      0.10683663	      0.02762869	      0.07668943	      0.02762869	      0.07668943	      0.02762869	      0.16028890	      0.02762869	      0.18634380	      0.02762869	      0.08659368
      0.07500046	    -82.54890035	      3.39459294	     -4.38492385	     -2.06301133	      0.02738426	      0.10673233	      0.02738426	      0.07629221	      0.02738426	      0.07629221	      0.02738426	      0.16029342	      0.02738426	      0.18624104	      0.02738426	      0.08658585
      0.07601302	    -82.35057700	      3.44232912	     -4.50573075	     -2.10172299	      0.02719486	      0.10664957	      0.02719486	      0.07598055	      0.02719486	      0.07598055	      0.02719486	      0.16029678	      0.02719486	      0.18614756	      0.02719486	      0.08657944
      0.07702559	    -82.14947700	      3.49033616	     -4.62880525	     -2.14121681	      0.02700762	      0.10656605	      0.02700762	      0.07566905	      0.02700762	      0.07566905	      0.02700762	      0.16029997	      0.02700762	      0.18606510	      0.02700762	      0.08657278
      0.07803815	    -81.94558608	      3.53852583	     -4.75419070	     -2.18136637	      0.02682252	      0.10648181	      0.02682252	      0.07535772	      0.02682252	      0.07535772	      0.02682252	      0.16030297	      0.02682252	      0.18597214	      0.02682252	      0.08656587
      0.07928037	    -81.69162089	      3.59800368	     -4.91123023	     -2.23168702	      0.02659831	      0.10637751	      0.02659831	      0.07497599	      0.02659831	      0.07497599	      0.02659831	      0.16030639	      0.02659831	      0.18586671	      0.02659831	      0.08655704
      0.08019331	    -81.50227091	      3.64188316	     -5.02894578	     -2.26929312	      0.02643553	      0.10630021	      0.02643553	      0.07469559	      0.02643553	      0.07469559	      0.02643553	      0.16030870	      0.02643553	      0.18577545	      0.02643553	      0.08655030
      0.08110625	    -81.31061990	      3.68600108	     -5.14864547	     -2.30757820	      0.02627441	      0.10622239	      0.02627441	      0.07441533	      0.02627441	      0.07441533	      0.02627441	      0.16031085	      0.02627441	      0.18569585	      0.02627441	      0.08654333
      0.08201919	    -81.11665681	      3.73027715	     -5.27036271	     -2.34642114	      0.02611495	      0.10614406	      0.02611495	      0.07413519	      0.02611495	      0.07413519	      0.02611495	      0.16031281	      0.02611495	      0.18560758	      0.02611495	      0.08653613
      0.08330768	    -80.83895380	      3.79313505	     -5.44564145	     -2.40235048	      0.02589266	      0.10603270	      0.02589266	      0.07374002	      0.02589266	      0.07374002	      0.02589266	      0.16031526	      0.02589266	      0.18548987	      0.02589266	      0.08652557
      0.08415236	    -80.65437841	      3.83450551	     -5.56280685	     -2.43961006	      0.02574867	      0.10595920	      0.02574867	      0.07348109	      0.02574867	      0.07348109	      0.02574867	      0.16031666	      0.02574867	      0.18539958	      0.02574867	      0.08651838
      0.08499703	    -80.46779596	      3.87609149	     -5.68178965	     -2.47747870	      0.02560605	      0.10588534	      0.02560605	      0.07322227	      0.02560605	      0.07322227	      0.02560605	      0.16031788	      0.02560605	      0.18532110	      0.02560605	      0.08651098
      0.08604359	    -80.23382232	      3.92780958	     -5.83177146	     -2.52507583	      0.02543121	      0.10579335	      0.02543121	      0.07290173	      0.02543121	      0.07290173	      0.02543121	      0.16031913	      0.02543121	      0.18521197	      0.02543121	      0.08650149
